#!OML:ASF I:\Actors\actors\Patient Classification 1\Patient 1\Session 1\Subject1.ASF
:FULLY-SPECIFIED
:DEGREES
155
root -0.37438 17.5573 7.39424 5.72026 -1.5336 -7.1269
lowerback 2.84905 0.319406 5.02875
upperback -7.03519 0.929863 1.64329
thorax -8.98682 0.170275 -1.16996
lowerneck -10.9086 -2.95483 -0.573213
upperneck 27.7578 -4.60666 1.62903
head 10.7659 -1.99012 0.111183
rclavicle 7.90169e-015 -6.36111e-015
rhumerus -19.6924 28.9556 -92.9303
rradius 103.881
rwrist 27.225
rhand -13.0856 -55.2517
rfingers 7.12502
rthumb 13.0107 -84.8259
lclavicle 7.90169e-015 -6.36111e-015
lhumerus -28.3249 -22.6587 101.977
lradius 83.6899
lwrist 11.8224
lhand -30.9305 -2.32623
lfingers 7.12502
lthumb -4.21606 27.6118
rfemur -1.15944 24.2353 25.1469
rtibia 2.95134
rfoot -10.6195 -21.8997
rtoes -0.231301
lfemur 7.33797 -39.1513 -16.3197
ltibia -3.85453
lfoot -13.9855 47.7648
ltoes 7.01222
156
root -0.375326 17.5615 7.39343 5.78022 -1.36518 -7.11197
lowerback 2.9561 0.31241 5.06992
upperback -7.03522 0.929113 1.61474
thorax -9.04995 0.16452 -1.22391
lowerneck -11.0131 -2.77756 -0.265341
upperneck 28.1151 -4.32474 1.25467
head 10.8995 -1.8672 -0.0445036
rclavicle 2.48481e-016 -6.55989e-015
rhumerus -19.8272 29.0455 -93.0831
rradius 104.707
rwrist 30.8001
rhand -22.7159 -54.2266
rfingers 7.12502
rthumb 3.71748 -84.1739
lclavicle 2.48481e-016 -6.55989e-015
lhumerus -28.4222 -22.844 102.073
lradius 83.936
lwrist 11.7422
lhand -31.0716 -2.53676
lfingers 7.12502
lthumb -4.35226 27.3985
rfemur -1.19105 24.2579 25.1158
rtibia 2.87582
rfoot -10.5613 -22.109
rtoes -0.374753
lfemur 7.15375 -39.1435 -16.184
ltibia -3.85856
lfoot -13.5215 47.5981
ltoes 6.29934
157
root -0.376446 17.564 7.39308 5.79888 -1.27166 -7.19449
lowerback 3.04712 0.334805 5.15743
upperback -6.99619 0.971276 1.62063
thorax -9.05836 0.179666 -1.27184
lowerneck -11.1493 -2.65629 -0.102338
upperneck 28.3628 -4.13066 1.03638
head 11.0091 -1.78245 -0.130619
rclavicle 3.40419e-015 1.39149e-015
rhumerus -19.9836 28.8525 -93.0896
rradius 104.216
rwrist 35.9775
rhand -28.6975 -54.8573
rfingers 7.12502
rthumb -2.05953 -84.8271
lclavicle 3.40419e-015 1.39149e-015
lhumerus -28.4256 -23.0444 102.178
lradius 84.068
lwrist 11.7334
lhand -31.149 -2.64621
lfingers 7.12502
lthumb -4.42703 27.2875
rfemur -1.17123 24.3021 25.2178
rtibia 2.83157
rfoot -10.5785 -22.2187
rtoes -0.305548
lfemur 7.08059 -39.0865 -16.0005
ltibia -3.89292
lfoot -13.2615 47.4846
ltoes 6.01981
158
root -0.376549 17.5647 7.39424 5.83772 -1.25504 -7.30614
lowerback 3.03825 0.364033 5.20515
upperback -6.95571 1.01673 1.68299
thorax -9.00669 0.202965 -1.23726
lowerneck -11.2801 -2.55607 -0.278832
upperneck 28.5958 -3.98231 1.14463
head 11.1297 -1.71591 -0.0460854
rclavicle -8.52289e-015 6.16232e-015
rhumerus -20.3569 29.1256 -93.1021
rradius 102.268
rwrist 38.8646
rhand -34.5584 -55.1899
rfingers 7.12502
rthumb -7.71854 -85.029
lclavicle -8.52289e-015 6.16232e-015
lhumerus -28.3758 -23.1603 102.285
lradius 84.1324
lwrist 11.7432
lhand -31.1999 -2.61763
lfingers 7.12502
lthumb -4.47615 27.3151
rfemur -1.1973 24.331 25.3276
rtibia 2.83454
rfoot -10.6368 -22.2099
rtoes -0.0240709
lfemur 7.09034 -39.2022 -15.8713
ltibia -3.94788
lfoot -13.3486 47.6144
ltoes 6.16728
159
root -0.374698 17.5631 7.39847 5.87713 -1.32995 -7.39881
lowerback 2.93601 0.4076 5.22957
upperback -6.91163 1.07294 1.75111
thorax -8.89523 0.234788 -1.18389
lowerneck -11.3901 -2.43409 -0.455206
upperneck 28.8771 -3.80284 1.25065
head 11.2644 -1.63566 0.042525
rclavicle -1.08586e-014 -2.74323e-014
rhumerus -20.793 29.4951 -92.9327
rradius 98.9844
rwrist 42.5729
rhand -37.6837 -54.7658
rfingers 7.12502
rthumb -10.7342 -84.4716
lclavicle -1.08586e-014 -2.74323e-014
lhumerus -28.2894 -23.2773 102.359
lradius 84.1324
lwrist 11.8061
lhand -31.2704 -2.53125
lfingers 7.12502
lthumb -4.54426 27.4
rfemur -1.2565 24.2932 25.3935
rtibia 2.88399
rfoot -10.6658 -22.0542
rtoes 0.0187508
lfemur 7.22453 -39.488 -15.8925
ltibia -4.00858
lfoot -13.61 47.9716
ltoes 6.48818
160
root -0.3726 17.5612 7.40225 5.85946 -1.43965 -7.38711
lowerback 2.86204 0.449822 5.15354
upperback -6.85795 1.11796 1.77508
thorax -8.79032 0.266165 -1.12038
lowerneck -11.4403 -2.27181 -0.338999
upperneck 29.152 -3.55835 1.10252
head 11.3722 -1.52632 -0.0018595
rclavicle 1.71452e-015 -1.05356e-014
rhumerus -21.1316 30.2463 -92.7721
rradius 94.9877
rwrist 44.5151
rhand -28.721 -52.2731
rfingers 7.12502
rthumb -2.08222 -82.2426
lclavicle 1.71452e-015 -1.05356e-014
lhumerus -28.1611 -23.4518 102.388
lradius 84.0353
lwrist 11.9264
lhand -31.4433 -2.49379
lfingers 7.12502
lthumb -4.71119 27.4338
rfemur -1.26674 24.2509 25.3636
rtibia 2.94671
rfoot -10.6858 -21.9001
rtoes -0.0225004
lfemur 7.41419 -39.6883 -16.0824
ltibia -4.02766
lfoot -13.8481 48.2628
ltoes 6.74019
161
root -0.373572 17.5591 7.40059 5.7794 -1.50607 -7.25914
lowerback 2.87432 0.49277 4.94857
upperback -6.78756 1.15521 1.73352
thorax -8.71811 0.299256 -1.05447
lowerneck -11.497 -2.10613 -0.059294
upperneck 29.4401 -3.3348 0.911867
head 11.484 -1.41363 -0.0929157
rclavicle -7.05686e-015 -4.77083e-015
rhumerus -21.3028 31.64 -93.008
rradius 91.6087
rwrist 35.7431
rhand -15.5948 -51.6742
rfingers 7.12502
rthumb 10.591 -81.3873
lclavicle -7.05686e-015 -4.77083e-015
lhumerus -28.0125 -23.7854 102.385
lradius 83.886
lwrist 12.0142
lhand -31.7444 -2.52917
lfingers 7.12502
lthumb -5.00197 27.3918
rfemur -1.20585 24.2348 25.2542
rtibia 2.98468
rfoot -10.6447 -21.8656
rtoes -0.141331
lfemur 7.51785 -39.6038 -16.3098
ltibia -3.99737
lfoot -13.8067 48.2466
ltoes 6.57098
162
root -0.375498 17.5557 7.39743 5.68078 -1.60491 -7.15585
lowerback 2.94804 0.599356 4.8178
upperback -6.70763 1.28301 1.63315
thorax -8.66533 0.368931 -1.1019
lowerneck -11.655 -2.01075 0.248542
upperneck 29.7792 -3.22999 0.750673
head 11.6391 -1.3463 -0.195581
rclavicle -1.39149e-015 1.59028e-015
rhumerus -17.835 23.4742 -89.9028
rradius 98.4732
rwrist -22.7493
rhand 6.7799 -64.9917
rfingers 7.12502
rthumb 32.0662 92.1843
lclavicle -1.39149e-015 1.59028e-015
lhumerus -27.8946 -24.3663 102.377
lradius 83.7495
lwrist 12.0137
lhand -31.9804 -2.39463
lfingers 7.12502
lthumb -5.22984 27.5208
rfemur -1.10578 24.2321 25.1847
rtibia 2.98117
rfoot -10.5725 -21.8114
rtoes -0.327734
lfemur 7.67237 -39.5421 -16.5388
ltibia -3.99989
lfoot -13.7648 48.3053
ltoes 6.50613
163
root -0.375403 17.5519 7.39576 5.6206 -1.69814 -7.13887
lowerback 3.06602 0.738653 4.84463
upperback -6.64091 1.46893 1.51866
thorax -8.64799 0.454992 -1.25859
lowerneck -11.7937 -1.96407 0.459476
upperneck 30.0003 -3.19222 0.666425
head 11.7491 -1.31148 -0.261252
rclavicle 2.85753e-015 9.54166e-015
rhumerus -20.2743 28.869 -92.0671
rradius 90.6222
rwrist 13.0318
rhand 8.17804 -56.2625
rfingers 7.12502
rthumb 33.3963 -83.1783
lclavicle 2.85753e-015 9.54166e-015
lhumerus -27.8301 -25.0292 102.36
lradius 83.6941
lwrist 11.8862
lhand -31.9278 -2.13635
lfingers 7.12502
lthumb -5.17902 27.7804
rfemur -1.02463 24.2687 25.1852
rtibia 2.94482
rfoot -10.5831 -21.7441
rtoes -0.0827434
lfemur 7.86763 -39.6908 -16.7219
ltibia -4.03193
lfoot -13.9782 48.5531
ltoes 6.95053
164
root -0.372728 17.5499 7.39419 5.67075 -1.62358 -7.16312
lowerback 3.13147 0.813956 4.99752
upperback -6.58274 1.5771 1.43028
thorax -8.61181 0.495996 -1.44926
lowerneck -11.795 -1.91332 0.631619
upperneck 29.94 -3.11638 0.536759
head 11.7196 -1.27375 -0.328225
rclavicle -1.04113e-014 -1.82882e-014
rhumerus -21.0619 29.7735 -92.5268
rradius 91.1894
rwrist 13.0321
rhand -5.66113 -57.2331
rfingers 7.12502
rthumb 20.1581 -86.2072
lclavicle -1.04113e-014 -1.82882e-014
lhumerus -27.819 -25.5415 102.313
lradius 83.8136
lwrist 11.6508
lhand -31.7859 -1.8741
lfingers 7.12502
lthumb -5.04203 28.0459
rfemur -1.03552 24.3463 25.1941
rtibia 2.87054
rfoot -10.6242 -21.8561
rtoes 0.234765
lfemur 7.85301 -39.9127 -16.7118
ltibia -4.06268
lfoot -14.0101 48.7071
ltoes 7.13652
165
root -0.368563 17.5513 7.39351 5.85719 -1.38534 -7.19738
lowerback 3.131 0.802876 5.17807
upperback -6.59304 1.5764 1.42919
thorax -8.6205 0.483327 -1.55095
lowerneck -11.744 -1.79225 0.904336
upperneck 29.8562 -2.86516 0.0896676
head 11.6625 -1.18601 -0.50579
rclavicle -1.69215e-014 1.55052e-014
rhumerus -21.5684 29.8518 -92.5583
rradius 94.1749
rwrist 19.9401
rhand -8.34101 -54.1838
rfingers 7.12502
rthumb 17.5807 -83.4089
lclavicle -1.69215e-014 1.55052e-014
lhumerus -28.0011 -25.7061 102.367
lradius 84.1352
lwrist 11.4271
lhand -31.714 -1.47496
lfingers 7.12502
lthumb -4.97257 28.4467
rfemur -1.15731 24.4803 25.1686
rtibia 2.74875
rfoot -10.6539 -22.1923
rtoes 0.425539
lfemur 7.56202 -40.1107 -16.4744
ltibia -4.11617
lfoot -13.6802 48.7276
ltoes 6.66123
